<svg width="584" height="401" viewBox="0 0 584 401" fill="none" xmlns="http://www.w3.org/2000/svg">
<rect width="584" height="401" fill="#ECF9FF"/>
<path d="M160 306V146H109H94V306H109H160Z" fill="#C7DDE8"/>
<path d="M232 306V103H178.682H163V306H178.682H232Z" fill="#C7DDE8"/>
<rect x="167" y="112" width="2" height="194" fill="#ABC9D7"/>
<rect x="171" y="112" width="2" height="194" fill="#ABC9D7"/>
<rect x="175" y="112" width="2" height="194" fill="#ABC9D7"/>
<rect x="179" y="112" width="2" height="194" fill="#ABC9D7"/>
<rect x="183" y="112" width="2" height="194" fill="#ABC9D7"/>
<rect x="187" y="112" width="2" height="194" fill="#ABC9D7"/>
<rect x="191" y="112" width="2" height="194" fill="#ABC9D7"/>
<rect x="195" y="112" width="2" height="194" fill="#ABC9D7"/>
<rect x="199" y="112" width="2" height="194" fill="#ABC9D7"/>
<rect x="203" y="112" width="2" height="194" fill="#ABC9D7"/>
<rect x="207" y="112" width="2" height="194" fill="#ABC9D7"/>
<rect x="211" y="112" width="2" height="194" fill="#ABC9D7"/>
<rect x="215" y="112" width="2" height="194" fill="#ABC9D7"/>
<rect x="219" y="112" width="2" height="194" fill="#ABC9D7"/>
<rect x="223" y="112" width="2" height="194" fill="#ABC9D7"/>
<rect x="227" y="112" width="2" height="194" fill="#ABC9D7"/>
<rect x="106" y="150" width="42" height="3" fill="#ABC9D7"/>
<rect x="106" y="155" width="42" height="3" fill="#ABC9D7"/>
<rect x="106" y="160" width="42" height="3" fill="#ABC9D7"/>
<rect x="106" y="165" width="42" height="3" fill="#ABC9D7"/>
<rect x="106" y="170" width="42" height="3" fill="#ABC9D7"/>
<rect x="106" y="175" width="42" height="3" fill="#ABC9D7"/>
<rect x="106" y="180" width="42" height="3" fill="#ABC9D7"/>
<rect x="106" y="185" width="42" height="3" fill="#ABC9D7"/>
<rect x="106" y="190" width="42" height="3" fill="#ABC9D7"/>
<rect x="106" y="195" width="42" height="3" fill="#ABC9D7"/>
<rect x="106" y="200" width="42" height="3" fill="#ABC9D7"/>
<rect x="106" y="205" width="42" height="3" fill="#ABC9D7"/>
<rect x="106" y="210" width="42" height="3" fill="#ABC9D7"/>
<rect x="106" y="215" width="42" height="3" fill="#ABC9D7"/>
<rect x="106" y="220" width="42" height="3" fill="#ABC9D7"/>
<rect x="106" y="225" width="42" height="3" fill="#ABC9D7"/>
<rect x="106" y="230" width="42" height="3" fill="#ABC9D7"/>
<rect x="106" y="235" width="42" height="3" fill="#ABC9D7"/>
<rect x="106" y="240" width="42" height="3" fill="#ABC9D7"/>
<rect x="106" y="245" width="42" height="3" fill="#ABC9D7"/>
<rect x="106" y="250" width="42" height="3" fill="#ABC9D7"/>
<rect x="106" y="255" width="42" height="3" fill="#ABC9D7"/>
<rect x="106" y="260" width="42" height="3" fill="#ABC9D7"/>
<rect x="106" y="265" width="42" height="3" fill="#ABC9D7"/>
<rect x="106" y="270" width="42" height="3" fill="#ABC9D7"/>
<rect x="106" y="275" width="42" height="3" fill="#ABC9D7"/>
<rect x="106" y="280" width="42" height="3" fill="#ABC9D7"/>
<rect x="106" y="285" width="42" height="3" fill="#ABC9D7"/>
<rect x="106" y="290" width="42" height="3" fill="#ABC9D7"/>
<rect x="106" y="295" width="42" height="3" fill="#ABC9D7"/>
<rect x="106" y="300" width="42" height="3" fill="#ABC9D7"/>
<path d="M303 120.5V306H252H237V120.5H252H303Z" fill="#C7DDE8"/>
<path d="M252 120.5H237V306H252M252 120.5H303V306H252M252 120.5V306" stroke="#ABC9D7"/>
<path d="M437.5 306V146H386.5H371.5V306H386.5H437.5Z" fill="#C7DDE8"/>
<path d="M511.5 306V103H458.182H442.5V306H458.182H511.5Z" fill="#C7DDE8"/>
<rect x="255.5" y="127" width="11" height="11" fill="#ABC9D7"/>
<rect x="255.5" y="158" width="11" height="11" fill="#ABC9D7"/>
<rect x="255.5" y="189" width="11" height="11" fill="#ABC9D7"/>
<rect x="270.5" y="127" width="11" height="11" fill="#ABC9D7"/>
<rect x="270.5" y="158" width="11" height="11" fill="#ABC9D7"/>
<rect x="270.5" y="189" width="11" height="11" fill="#ABC9D7"/>
<rect x="285.5" y="127" width="11" height="11" fill="#ABC9D7"/>
<rect x="285.5" y="158" width="11" height="11" fill="#ABC9D7"/>
<rect x="285.5" y="189" width="11" height="11" fill="#ABC9D7"/>
<rect x="256" y="221" width="11" height="11" fill="#ABC9D7"/>
<rect x="256" y="252" width="11" height="11" fill="#ABC9D7"/>
<rect x="256" y="283" width="11" height="11" fill="#ABC9D7"/>
<rect x="271" y="221" width="11" height="11" fill="#ABC9D7"/>
<rect x="271" y="252" width="11" height="11" fill="#ABC9D7"/>
<rect x="271" y="283" width="11" height="11" fill="#ABC9D7"/>
<rect x="286" y="221" width="11" height="11" fill="#ABC9D7"/>
<rect x="286" y="252" width="11" height="11" fill="#ABC9D7"/>
<rect x="286" y="283" width="11" height="11" fill="#ABC9D7"/>
<rect x="256" y="174" width="11" height="11" fill="#ABC9D7"/>
<rect x="256" y="205" width="11" height="11" fill="#ABC9D7"/>
<rect x="256" y="236" width="11" height="11" fill="#ABC9D7"/>
<rect x="271" y="174" width="11" height="11" fill="#ABC9D7"/>
<rect x="271" y="205" width="11" height="11" fill="#ABC9D7"/>
<rect x="271" y="236" width="11" height="11" fill="#ABC9D7"/>
<rect x="286" y="174" width="11" height="11" fill="#ABC9D7"/>
<rect x="286" y="205" width="11" height="11" fill="#ABC9D7"/>
<rect x="286" y="236" width="11" height="11" fill="#ABC9D7"/>
<rect x="446" y="118" width="2" height="188" fill="#ABC9D7"/>
<rect x="450" y="118" width="2" height="188" fill="#ABC9D7"/>
<rect x="454" y="118" width="2" height="188" fill="#ABC9D7"/>
<rect x="458" y="118" width="2" height="188" fill="#ABC9D7"/>
<rect x="462" y="118" width="2" height="188" fill="#ABC9D7"/>
<rect x="466" y="118" width="2" height="188" fill="#ABC9D7"/>
<rect x="470" y="118" width="2" height="188" fill="#ABC9D7"/>
<rect x="474" y="118" width="2" height="188" fill="#ABC9D7"/>
<rect x="478" y="118" width="2" height="188" fill="#ABC9D7"/>
<rect x="482" y="118" width="2" height="188" fill="#ABC9D7"/>
<rect x="486" y="118" width="2" height="188" fill="#ABC9D7"/>
<rect x="490" y="118" width="2" height="188" fill="#ABC9D7"/>
<rect x="494" y="118" width="2" height="188" fill="#ABC9D7"/>
<rect x="498" y="118" width="2" height="188" fill="#ABC9D7"/>
<rect x="502" y="118" width="2" height="188" fill="#ABC9D7"/>
<rect x="506" y="118" width="2" height="188" fill="#ABC9D7"/>
<rect x="371.5" y="150" width="54" height="3" fill="#ABC9D7"/>
<rect x="371.5" y="155" width="54" height="3" fill="#ABC9D7"/>
<rect x="371.5" y="160" width="54" height="3" fill="#ABC9D7"/>
<rect x="371.5" y="165" width="54" height="3" fill="#ABC9D7"/>
<rect x="371.5" y="170" width="54" height="3" fill="#ABC9D7"/>
<rect x="371.5" y="175" width="54" height="3" fill="#ABC9D7"/>
<rect x="371.5" y="180" width="54" height="3" fill="#ABC9D7"/>
<rect x="371.5" y="185" width="54" height="3" fill="#ABC9D7"/>
<rect x="371.5" y="190" width="54" height="3" fill="#ABC9D7"/>
<rect x="371.5" y="195" width="54" height="3" fill="#ABC9D7"/>
<rect x="371.5" y="200" width="54" height="3" fill="#ABC9D7"/>
<rect x="371.5" y="205" width="54" height="3" fill="#ABC9D7"/>
<rect x="371.5" y="210" width="54" height="3" fill="#ABC9D7"/>
<rect x="371.5" y="215" width="54" height="3" fill="#ABC9D7"/>
<rect x="371.5" y="220" width="54" height="3" fill="#ABC9D7"/>
<rect x="371.5" y="225" width="54" height="3" fill="#ABC9D7"/>
<rect x="371.5" y="230" width="54" height="3" fill="#ABC9D7"/>
<rect x="371.5" y="235" width="54" height="3" fill="#ABC9D7"/>
<rect x="371.5" y="240" width="54" height="3" fill="#ABC9D7"/>
<rect x="371.5" y="245" width="54" height="3" fill="#ABC9D7"/>
<rect x="371.5" y="250" width="54" height="3" fill="#ABC9D7"/>
<rect x="371.5" y="255" width="54" height="3" fill="#ABC9D7"/>
<rect x="371.5" y="260" width="54" height="3" fill="#ABC9D7"/>
<rect x="371.5" y="265" width="54" height="3" fill="#ABC9D7"/>
<rect x="371.5" y="270" width="54" height="3" fill="#ABC9D7"/>
<rect x="371.5" y="275" width="54" height="3" fill="#ABC9D7"/>
<rect x="371.5" y="280" width="54" height="3" fill="#ABC9D7"/>
<rect x="371.5" y="285" width="54" height="3" fill="#ABC9D7"/>
<rect x="371.5" y="290" width="54" height="3" fill="#ABC9D7"/>
<rect x="371.5" y="295" width="54" height="3" fill="#ABC9D7"/>
<rect x="371.5" y="300" width="54" height="3" fill="#ABC9D7"/>
<path d="M306.5 163.5H361.018H369.5V234.5H361.018H306.5V163.5Z" fill="#C7DDE8" stroke="#ABC9D7"/>
<path d="M306.5 235.5H361.018H369.5V306.5H361.018H306.5V235.5Z" fill="#C7DDE8" stroke="#ABC9D7"/>
<rect x="306" y="169" width="39.7222" height="5" fill="#ABC9D7"/>
<rect x="306" y="201" width="39.7222" height="5" fill="#ABC9D7"/>
<rect x="321.277" y="177" width="39.7222" height="5" fill="#ABC9D7"/>
<rect x="321.277" y="209" width="39.7222" height="5" fill="#ABC9D7"/>
<rect x="306" y="185" width="39.7222" height="5" fill="#ABC9D7"/>
<rect x="306" y="217" width="39.7222" height="5" fill="#ABC9D7"/>
<rect x="306" y="193" width="39.7222" height="5" fill="#ABC9D7"/>
<rect x="306" y="225" width="39.7222" height="5" fill="#ABC9D7"/>
<rect x="306" y="241" width="39.7222" height="5" fill="#ABC9D7"/>
<rect x="306" y="273" width="39.7222" height="5" fill="#ABC9D7"/>
<rect x="321.277" y="249" width="39.7222" height="5" fill="#ABC9D7"/>
<rect x="321.277" y="281" width="39.7222" height="5" fill="#ABC9D7"/>
<rect x="306" y="257" width="39.7222" height="5" fill="#ABC9D7"/>
<rect x="306" y="289" width="39.7222" height="5" fill="#ABC9D7"/>
<rect x="306" y="265" width="39.7222" height="5" fill="#ABC9D7"/>
<rect x="306" y="297" width="39.7222" height="5" fill="#ABC9D7"/>
<path d="M482.313 330.747C437.715 325.064 117.921 327.977 111.395 329.824C84.745 331.671 70.0605 335.852 99.4294 337.211C217.441 340.778 285.595 342.401 437.715 339.52L482.313 337.211C482.313 337.211 526.91 336.43 482.313 330.747Z" fill="#8BBDD5"/>
<path d="M87.4709 306.586C82.7884 305.606 81.3062 304.273 81.8485 299.714C82.7007 290.189 86.3288 283.844 92.9736 278.162C99.0282 274.101 105.9 269.728 115.583 264.105L130.577 240.366C134.012 235.681 134.637 235.681 139.635 235.681H254.271L285.194 241.615H314.244C319.792 241.971 323.927 244.427 323.927 252.236L325.176 264.418C327.663 281.19 328.194 290.337 328.925 306.586C328.925 312.833 325.176 316.269 319.554 316.269H289.567C283.945 288.782 259.581 295.341 254.271 310.647H217.725C211.79 291.593 192.424 293.467 185.864 310.647H168.06C164.482 310.769 163.297 309.605 161.812 306.586C158.064 301.901 153.691 301.901 149.318 306.586H87.4709Z" fill="white"/>
<path d="M169.308 285.971C171.494 285.034 172.656 280.488 171.494 276.912C167.746 278.474 164.281 279.032 161.811 279.724C156.933 281.09 152.753 281.598 150.254 281.598C151.031 286.219 155.876 290.031 160.562 288.782C162.035 287.616 163.685 288.782 165.247 287.22C167.377 286.964 168.144 286.639 169.308 285.971Z" fill="#DEF2FF"/>
<g filter="url(#filter0_i_1024_2288)">
<path d="M312.86 247.239L300.411 247.871C296.315 248.362 295.169 249.52 295.285 253.248V266.917C295.285 270.353 296.214 272.226 300.411 272.226H316.521C322.252 272.258 322.397 270.346 322.014 266.533L319.817 251.983C318.701 248.399 317.321 247.205 312.86 247.239Z" fill="#C6ECFF"/>
</g>
<g filter="url(#filter1_i_1024_2288)">
<path d="M241.777 246.926C241.814 241.676 240.906 240.17 238.028 239.429H222.098C217.493 239.466 215.722 240.292 213.664 242.865L205.543 255.672L212.727 268.167H237.091C240.956 267.856 241.872 266.599 241.777 262.856V246.926Z" fill="#C6ECFF"/>
</g>
<g filter="url(#filter2_i_1024_2288)">
<path d="M289.344 252.861C289.382 247.61 283.788 247.354 280.911 246.613L263.731 242.865C259.126 242.901 249.233 240.292 247.176 242.865V259.108V271.602H278.724C285.596 271.602 289.44 270.347 289.344 266.604V252.861Z" fill="#C6ECFF"/>
</g>
<path d="M146.595 306.586H93.4936C87.8192 303.687 89.3443 289.094 98.0903 289.094C102.21 285.455 103.442 285.729 105.899 285.658H135.886C142.445 285.658 141.821 290.656 147.131 290.656C151.191 292.218 150.655 305.962 146.595 306.586Z" fill="#C7EAFE"/>
<g filter="url(#filter3_i_1024_2288)">
<path d="M200.544 239.742H140.258C135.573 239.742 134.639 240.23 132.137 243.802L124.328 255.984C120.892 261.607 123.391 261.607 126.202 261.607H185.863C189.753 261.815 191.798 260.357 193.672 257.858L200.544 247.863C204.292 242.553 205.595 239.544 200.544 239.742Z" fill="#C6ECFF"/>
</g>
<path d="M145.57 221C140.26 221 139.323 230.995 142.759 230.995H205.231C209.604 230.995 212.103 221 205.543 221H145.57Z" fill="url(#paint0_linear_1024_2288)"/>
<path d="M183.678 264.418H115.271C106.111 269.331 101.299 272.38 93.0938 278.162C100.054 281.401 102.152 281.91 106.838 281.91H141.509C148.069 281.91 153.691 281.91 160.563 280.036C164.258 279.029 168.685 278.162 171.496 276.913L184.927 268.479C188.051 266.292 187.114 264.418 183.678 264.418Z" fill="#ED3B69"/>
<path d="M149.318 306.587H87.4709C83.9836 305.857 82.2714 304.931 81.8485 302.623C79.1378 312.604 83.0979 320.955 91.2193 320.955H146.507H189.612C189.612 311.047 193.174 304.15 197.109 302.838C204.606 300.34 213.843 299.896 214.914 320.955H258.644L276.448 303.151C280.853 303.778 284.257 316.27 283.008 322.205H295.19C298.321 321.186 302.167 319.729 303.311 316.27H289.567C283.945 288.782 259.581 295.342 254.271 310.647H217.725C211.79 291.594 192.424 293.468 185.864 310.647H168.06C164.482 310.769 163.297 309.606 161.812 306.587C158.064 301.901 153.691 301.901 149.318 306.587Z" fill="#1A58BC"/>
<path d="M149.319 306.587H87.4714C83.9841 305.857 82.2718 304.931 81.8489 302.623C79.1383 312.604 84.0354 319.706 92.1568 319.706H147.132C155.327 319.46 159.401 318.682 164.312 314.396C168.552 318.099 175.223 318.563 189.613 318.456H257.707L289.568 316.27C283.945 288.782 259.581 295.342 254.271 310.647H217.725C211.79 291.594 192.424 293.468 185.865 310.647H168.06C164.483 310.769 163.297 309.606 161.813 306.587C158.065 301.901 153.692 301.901 149.319 306.587Z" fill="#3387E8"/>
<path d="M204.295 235.681H136.513C133.389 235.681 135.575 230.996 138.699 230.996H204.919C205.721 230.996 205.904 231.229 206.169 231.62C212.416 230.371 214.287 230.996 213.978 232.557C213.48 235.072 212.821 235.455 211.479 235.681H204.295Z" fill="#3D82DC"/>
<path d="M198.359 334.074C193.054 332.144 190.55 328.139 189.613 320.955C189.613 312.521 191.487 301.589 203.982 301.589C210.541 301.589 214.932 309.597 214.914 320.955C213.977 326.89 211.325 333.4 205.544 334.074H198.359Z" fill="#073541"/>
<path d="M266.766 334.074C261.461 332.144 258.957 328.139 258.02 320.955C258.02 312.521 259.894 301.589 272.388 301.589C278.948 301.589 283.338 309.597 283.321 320.955C282.384 326.89 279.732 333.4 273.95 334.074H266.766Z" fill="#073541"/>
<rect x="103.09" y="290.344" width="30.6112" height="2.49887" rx="1.24944" fill="#A4D5EA"/>
<path d="M126.204 320.955H101.84C101.975 327.477 106.213 334.074 110.274 334.074H117.77C121.831 333.762 125.579 327.827 126.204 320.955Z" fill="#073541"/>
<path d="M110.898 320.955C112.148 329.701 121.206 332.2 122.768 320.955H110.898Z" fill="#AFF3F1"/>
<rect x="101.215" y="295.342" width="34.3595" height="2.49887" rx="1.24944" fill="#A4D5EA"/>
<rect x="96.2188" y="300.339" width="43.7303" height="3.12359" rx="1.5618" fill="#A4D5EA"/>
<ellipse cx="205.544" cy="318.144" rx="6.24719" ry="10.3079" fill="#AFF4EF"/>
<ellipse cx="273.95" cy="318.144" rx="6.24719" ry="10.3079" fill="#AFF4EF"/>
<g filter="url(#filter4_d_1024_2288)">
<rect x="225.535" y="275.351" width="10.6202" height="3.12359" rx="1.5618" fill="#4285D6"/>
</g>
<path d="M224.909 282.222H218.974V287.22H213.977V294.092H218.974V298.777H224.909V293.467H229.907V287.22H224.909V282.222Z" fill="#ED3B69"/>
<path d="M314.331 279.099H308.396V284.097H303.398V290.969H308.396V295.654H314.331V290.344H319.329V284.097H314.331V279.099Z" fill="#ED3B69"/>
<path d="M273.414 245.052L247.176 259.108V260.478V262.231L277.787 245.989L273.414 245.052Z" fill="#E0F9FE"/>
<path d="M288.407 249.425L286.845 248.175L247.176 269.416L249.018 271.29L288.407 249.425Z" fill="#E0F9FE"/>
<path d="M289.032 255.359V250.805L254.048 271.29H256.234H259.67L289.032 255.359Z" fill="#E0F9FE"/>
<g filter="url(#filter5_d_1024_2288)">
<rect x="201.843" y="255.409" width="10.5202" height="14.2685" rx="2.95" fill="#3487E6" stroke="black" stroke-width="0.1"/>
<path d="M201.794 267.854V262.231H198.983C195.859 263.793 195.234 267.854 197.733 267.854H201.794Z" fill="#3487E6" stroke="black" stroke-width="0.1"/>
</g>
<line x1="200.922" y1="267.854" x2="200.922" y2="297.216" stroke="#DBE9F4" stroke-width="2"/>
<path d="M175.266 230.995C171.205 228.809 171.83 223.187 176.828 221H169.331C164.958 222.562 163.415 226.704 165.895 230.995H175.266Z" fill="#90E3F3"/>
<path d="M144.412 239.756L128.792 248.809L127.23 251.93L148.161 239.756H144.412Z" fill="#E0F9FE"/>
<path d="M175.027 239.756H172.216L135.353 261.607H137.54L175.027 239.756Z" fill="#E0F9FE"/>
<path d="M185.337 239.756H179.089L140.976 261.607H148.161L185.337 239.756Z" fill="#E0F9FE"/>
<path d="M203.446 242.241C204.478 240.658 203.304 239.656 201.572 239.756L165.343 261.607H170.336L203.446 242.241Z" fill="#E0F9FE"/>
<path d="M231.424 239.742L207.787 252.74L205.945 254.856H209.936L236.643 239.742H231.424Z" fill="#E0F9FE"/>
<path d="M241.554 246.996V245.183L212.817 261.607V263.481L241.554 246.996Z" fill="#E0F9FE"/>
<path d="M241.554 252.74V249.415L212.817 265.668V267.854H215.768L241.554 252.74Z" fill="#E0F9FE"/>
<path d="M315.295 247.863L295.277 258.171V260.67L317.856 249.112L315.295 247.863Z" fill="#E0F9FE"/>
<path d="M320.784 258.171L320.418 256.297L295.277 269.103L296.527 271.29L320.784 258.171Z" fill="#E0F9FE"/>
<path d="M321.516 264.418L321.15 260.67L298.089 271.915C300.9 272.227 302.436 272.203 305.05 272.227L321.516 264.418Z" fill="#E0F9FE"/>
<path d="M89.1129 315.17H87.9595L89.717 310.079H91.104L92.859 315.17H91.7056L90.4304 311.242H90.3906L89.1129 315.17ZM89.0408 313.169H91.7653V314.009H89.0408V313.169ZM94.8718 310.079H96.1992L97.6012 313.499H97.6608L99.0628 310.079H100.39V315.17H99.3462V311.856H99.3039L97.9865 315.145H97.2755L95.9581 311.844H95.9158V315.17H94.8718V310.079ZM102.677 315.17V310.079H104.715C105.09 310.079 105.402 310.135 105.653 310.246C105.903 310.357 106.091 310.511 106.217 310.708C106.343 310.903 106.406 311.129 106.406 311.384C106.406 311.583 106.366 311.758 106.286 311.909C106.207 312.058 106.097 312.18 105.958 312.276C105.821 312.371 105.663 312.438 105.486 312.478V312.528C105.68 312.536 105.861 312.59 106.03 312.692C106.201 312.793 106.339 312.934 106.446 313.117C106.552 313.297 106.605 313.513 106.605 313.763C106.605 314.033 106.537 314.274 106.403 314.486C106.271 314.697 106.074 314.863 105.814 314.986C105.554 315.109 105.233 315.17 104.852 315.17H102.677ZM103.753 314.29H104.631C104.931 314.29 105.15 314.233 105.287 314.118C105.425 314.002 105.493 313.848 105.493 313.656C105.493 313.515 105.459 313.391 105.392 313.283C105.324 313.175 105.227 313.091 105.101 313.03C104.976 312.968 104.828 312.938 104.656 312.938H103.753V314.29ZM103.753 312.209H104.551C104.699 312.209 104.83 312.184 104.944 312.132C105.06 312.079 105.151 312.005 105.218 311.909C105.285 311.812 105.319 311.697 105.319 311.563C105.319 311.379 105.254 311.231 105.123 311.118C104.994 311.005 104.81 310.949 104.571 310.949H103.753V312.209ZM111.85 310.079H112.926V313.385C112.926 313.756 112.837 314.081 112.66 314.36C112.484 314.638 112.238 314.855 111.922 315.011C111.605 315.165 111.236 315.242 110.815 315.242C110.393 315.242 110.023 315.165 109.707 315.011C109.39 314.855 109.144 314.638 108.968 314.36C108.793 314.081 108.705 313.756 108.705 313.385V310.079H109.781V313.293C109.781 313.487 109.824 313.659 109.908 313.81C109.994 313.961 110.115 314.079 110.271 314.166C110.427 314.252 110.608 314.295 110.815 314.295C111.024 314.295 111.206 314.252 111.36 314.166C111.516 314.079 111.636 313.961 111.72 313.81C111.806 313.659 111.85 313.487 111.85 313.293V310.079ZM116.131 310.079L117.362 313.947H117.409L118.642 310.079H119.835L118.08 315.17H116.693L114.935 310.079H116.131ZM122.924 310.079V315.17H121.848V310.079H122.924ZM126.087 315.17H124.934L126.691 310.079H128.078L129.833 315.17H128.68L127.405 311.242H127.365L126.087 315.17ZM126.015 313.169H128.739V314.009H126.015V313.169ZM136.104 310.079V315.17H135.174L132.96 311.966H132.922V315.17H131.846V310.079H132.791L134.988 313.281H135.033V310.079H136.104ZM141.155 311.543C141.135 311.343 141.05 311.187 140.899 311.076C140.748 310.965 140.544 310.909 140.285 310.909C140.109 310.909 139.961 310.934 139.84 310.984C139.719 311.032 139.626 311.099 139.562 311.185C139.499 311.271 139.467 311.369 139.467 311.479C139.464 311.57 139.483 311.649 139.524 311.717C139.568 311.785 139.626 311.844 139.701 311.894C139.776 311.942 139.862 311.984 139.96 312.02C140.057 312.055 140.162 312.085 140.273 312.11L140.73 312.219C140.952 312.269 141.156 312.335 141.342 312.418C141.527 312.501 141.688 312.603 141.824 312.724C141.96 312.845 142.065 312.987 142.14 313.151C142.216 313.316 142.255 313.504 142.256 313.716C142.255 314.027 142.175 314.297 142.018 314.526C141.862 314.753 141.637 314.93 141.342 315.056C141.048 315.18 140.694 315.242 140.28 315.242C139.869 315.242 139.511 315.179 139.206 315.053C138.903 314.927 138.666 314.741 138.495 314.494C138.326 314.245 138.238 313.938 138.229 313.572H139.271C139.283 313.742 139.331 313.885 139.418 313.999C139.505 314.112 139.622 314.197 139.768 314.255C139.916 314.311 140.082 314.34 140.268 314.34C140.45 314.34 140.608 314.313 140.743 314.26C140.878 314.207 140.984 314.133 141.058 314.039C141.133 313.944 141.17 313.836 141.17 313.713C141.17 313.599 141.136 313.503 141.068 313.425C141.002 313.347 140.904 313.281 140.775 313.226C140.647 313.171 140.491 313.122 140.305 313.077L139.751 312.938C139.321 312.833 138.983 312.67 138.734 312.448C138.485 312.226 138.362 311.927 138.364 311.551C138.362 311.242 138.444 310.973 138.61 310.743C138.777 310.512 139.007 310.333 139.298 310.203C139.59 310.074 139.921 310.009 140.293 310.009C140.67 310.009 141 310.074 141.282 310.203C141.565 310.333 141.786 310.512 141.943 310.743C142.101 310.973 142.182 311.24 142.187 311.543H141.155Z" fill="white"/>
<path d="M211.567 235.719H204.695C206.569 234.782 206.882 233.22 206.257 231.659C209.884 230.997 211.88 230.722 213.441 231.346C214.698 231.849 213.754 235.719 211.567 235.719Z" fill="#1B56BC"/>
<line x1="290.656" y1="241.595" x2="292.218" y2="316.563" stroke="#DBE9F4" stroke-width="2"/>
<path d="M324.329 278.876C324.642 279.813 325.892 279.189 325.892 278.252L324.955 272.629C324.642 271.067 323.081 271.38 323.393 272.941L324.329 278.876Z" fill="#C6ECFF" stroke="black" stroke-width="0.2"/>
<path d="M324.338 318.648L302.723 292.794L295.094 293.218L335.781 258.888C343.42 256.522 347.269 253.875 353.582 247.445C363.138 237.623 376.893 236.849 384.521 236.849L514.213 236.849C523.113 236.849 527.351 239.392 528.623 253.378C531.166 272.027 532.215 284.769 531.166 305.509H479.459V318.648H324.338Z" fill="white"/>
<path d="M358.242 244.902L523.959 245.326C523.583 240.866 522.264 240.24 518.449 240.24H374.348C368.838 240.24 363.78 241.272 358.242 244.902Z" fill="#ED3B69"/>
<path d="M339.491 261.251L339.502 261.238L339.513 261.226C342.474 257.69 345.335 256.12 349.401 255.447C353.099 254.834 357.75 254.965 364.378 255.151C364.933 255.167 365.503 255.183 366.087 255.199C365.787 260.564 365.478 264.99 364.992 268.63C364.473 272.508 363.762 275.413 362.696 277.571C361.647 279.693 360.255 281.093 358.319 281.987C356.344 282.899 353.73 283.318 350.189 283.318H322.216C321.547 283.318 321.032 283.292 320.645 283.242C320.452 283.217 320.309 283.188 320.205 283.161C320.433 282.714 320.961 282.046 321.837 281.042C322.144 280.691 322.491 280.301 322.869 279.876C323.528 279.135 324.283 278.287 325.087 277.348L339.491 261.251Z" fill="#E2FFFA" stroke="black" stroke-width="2"/>
<path d="M531.164 298.728V287.708H312.569L309.078 292.998L312.569 298.728H531.164Z" fill="#ED3B69"/>
<path d="M324.336 318.648L302.721 292.795L295.092 293.219C289.279 296.437 287.082 298.342 287.039 302.119V314.834C287.222 323.61 291.701 324.582 298.482 324.582H531.164V305.51H479.457V318.648H324.336Z" fill="#282828"/>
<circle cx="321.795" cy="319.92" r="14.834" fill="#59595B"/>
<circle cx="477.76" cy="319.92" r="14.834" fill="#59595B"/>
<g filter="url(#filter6_d_1024_2288)">
<rect x="378.16" y="249.988" width="50.0117" height="25.4297" rx="3" fill="white"/>
</g>
<rect x="326.453" y="270.332" width="6.78125" height="15.2578" rx="2" fill="#59575A"/>
<rect x="369.688" y="283.047" width="2.54297" height="11.8672" rx="1.27148" fill="#3A3F3D"/>
<rect x="375.617" y="283.047" width="2.54297" height="11.8672" rx="1.27148" fill="#3A3F3D"/>
<path d="M373.5 237.697L373.924 318.648" stroke="#BCBCBC"/>
<path d="M433.684 238.119L434.107 318.648" stroke="#BCBCBC"/>
<rect x="467.168" y="255.922" width="7.6289" height="22.0391" rx="1" fill="#ED3B69"/>
<rect x="460.387" y="262.703" width="22.0391" height="7.6289" rx="1" fill="#ED3B69"/>
<circle cx="321.369" cy="319.496" r="8.90039" fill="#FDE9F2"/>
<circle cx="477.338" cy="319.496" r="8.90039" fill="#FDE9F2"/>
<path d="M409.871 295.792H408.359L410.322 289.974H412.195L414.158 295.792H412.646L411.28 291.44H411.234L409.871 295.792ZM409.669 293.503H412.828V294.571H409.669V293.503ZM416.384 289.974H418.126L419.603 293.577H419.671L421.148 289.974H422.89V295.792H421.52V292.219H421.472L420.074 295.756H419.199L417.802 292.199H417.753V295.792H416.384V289.974ZM425.367 295.792V289.974H427.793C428.229 289.974 428.593 290.036 428.887 290.159C429.182 290.282 429.404 290.454 429.552 290.676C429.701 290.898 429.776 291.154 429.776 291.446C429.776 291.667 429.73 291.865 429.637 292.04C429.544 292.212 429.416 292.355 429.253 292.469C429.09 292.582 428.902 292.662 428.688 292.707V292.764C428.923 292.775 429.14 292.839 429.338 292.954C429.539 293.07 429.7 293.231 429.821 293.437C429.943 293.642 430.003 293.884 430.003 294.165C430.003 294.477 429.924 294.756 429.765 295.003C429.606 295.247 429.375 295.44 429.074 295.582C428.773 295.722 428.408 295.792 427.978 295.792H425.367ZM426.773 294.659H427.642C427.947 294.659 428.172 294.601 428.316 294.486C428.462 294.37 428.535 294.209 428.535 294.003C428.535 293.853 428.499 293.724 428.429 293.616C428.359 293.506 428.26 293.422 428.131 293.364C428.002 293.303 427.848 293.273 427.668 293.273H426.773V294.659ZM426.773 292.366H427.552C427.705 292.366 427.841 292.341 427.961 292.29C428.08 292.239 428.173 292.165 428.239 292.068C428.307 291.971 428.341 291.855 428.341 291.719C428.341 291.524 428.272 291.37 428.134 291.258C427.996 291.147 427.809 291.091 427.574 291.091H426.773V292.366ZM435.799 289.974H437.203V293.727C437.203 294.161 437.099 294.539 436.893 294.861C436.687 295.181 436.399 295.429 436.029 295.605C435.66 295.779 435.231 295.866 434.742 295.866C434.248 295.866 433.816 295.779 433.447 295.605C433.078 295.429 432.791 295.181 432.586 294.861C432.382 294.539 432.279 294.161 432.279 293.727V289.974H433.686V293.605C433.686 293.806 433.729 293.985 433.816 294.142C433.905 294.299 434.029 294.422 434.188 294.511C434.348 294.6 434.532 294.645 434.742 294.645C434.953 294.645 435.136 294.6 435.294 294.511C435.453 294.422 435.577 294.299 435.666 294.142C435.755 293.985 435.799 293.806 435.799 293.605V289.974ZM439.684 295.792V289.974H441.09V294.65H443.511V295.792H439.684ZM447.175 295.792H445.664L447.627 289.974H449.499L451.462 295.792H449.951L448.585 291.44H448.539L447.175 295.792ZM446.974 293.503H450.133V294.571H446.974V293.503ZM458.64 289.974V295.792H457.447L455.132 292.435H455.095V295.792H453.689V289.974H454.899L457.189 293.327H457.237V289.974H458.64ZM466.406 292.082H464.986C464.967 291.936 464.928 291.805 464.869 291.687C464.81 291.57 464.733 291.47 464.636 291.386C464.539 291.303 464.425 291.239 464.292 291.196C464.162 291.15 464.017 291.128 463.858 291.128C463.575 291.128 463.332 291.197 463.128 291.335C462.925 291.473 462.769 291.673 462.659 291.935C462.551 292.196 462.497 292.512 462.497 292.883C462.497 293.27 462.552 293.594 462.662 293.855C462.773 294.114 462.93 294.31 463.13 294.443C463.333 294.574 463.573 294.639 463.849 294.639C464.004 294.639 464.146 294.619 464.272 294.579C464.401 294.54 464.514 294.482 464.611 294.406C464.709 294.328 464.789 294.235 464.852 294.125C464.916 294.013 464.961 293.887 464.986 293.747L466.406 293.756C466.381 294.013 466.307 294.267 466.182 294.517C466.058 294.767 465.889 294.995 465.673 295.202C465.457 295.406 465.194 295.569 464.883 295.69C464.575 295.811 464.22 295.872 463.821 295.872C463.294 295.872 462.823 295.756 462.406 295.525C461.991 295.292 461.664 294.953 461.423 294.508C461.182 294.063 461.062 293.522 461.062 292.883C461.062 292.243 461.184 291.701 461.429 291.256C461.673 290.81 462.004 290.472 462.42 290.241C462.837 290.01 463.304 289.895 463.821 289.895C464.173 289.895 464.499 289.944 464.798 290.042C465.097 290.139 465.361 290.281 465.588 290.469C465.815 290.654 466 290.882 466.142 291.153C466.284 291.424 466.372 291.734 466.406 292.082ZM468.811 295.792V289.974H472.867V291.116H470.217V292.31H472.66V293.454H470.217V294.65H472.867V295.792H468.811Z" fill="white"/>
<path d="M316.614 294.925H315.48L316.953 290.561H318.357L319.829 294.925H318.696L317.671 291.66H317.637L316.614 294.925ZM316.463 293.207H318.832V294.008H316.463V293.207ZM321.499 290.561H322.805L323.913 293.263H323.964L325.072 290.561H326.378V294.925H325.351V292.244H325.315L324.267 294.897H323.611L322.562 292.229H322.526V294.925H321.499V290.561ZM328.236 294.925V290.561H330.056C330.382 290.561 330.656 290.607 330.876 290.699C331.098 290.792 331.264 290.921 331.375 291.087C331.487 291.253 331.543 291.446 331.543 291.665C331.543 291.831 331.508 291.979 331.439 292.11C331.369 292.239 331.273 292.346 331.151 292.432C331.029 292.517 330.887 292.577 330.727 292.611V292.653C330.903 292.662 331.066 292.709 331.215 292.796C331.365 292.883 331.486 293.003 331.577 293.158C331.668 293.312 331.713 293.493 331.713 293.704C331.713 293.938 331.654 294.148 331.534 294.332C331.415 294.515 331.243 294.66 331.017 294.767C330.791 294.872 330.517 294.925 330.194 294.925H328.236ZM329.291 294.074H329.943C330.171 294.074 330.34 294.031 330.448 293.944C330.557 293.858 330.612 293.737 330.612 293.582C330.612 293.47 330.586 293.373 330.533 293.292C330.48 293.21 330.406 293.147 330.309 293.103C330.213 293.057 330.097 293.035 329.962 293.035H329.291V294.074ZM329.291 292.355H329.875C329.99 292.355 330.092 292.336 330.181 292.297C330.271 292.259 330.341 292.204 330.39 292.131C330.441 292.059 330.467 291.971 330.467 291.869C330.467 291.723 330.415 291.608 330.311 291.524C330.208 291.44 330.068 291.398 329.892 291.398H329.291V292.355ZM336.06 290.561H337.113V293.376C337.113 293.701 337.036 293.984 336.881 294.226C336.726 294.466 336.51 294.652 336.233 294.784C335.956 294.915 335.634 294.98 335.268 294.98C334.897 294.98 334.573 294.915 334.296 294.784C334.019 294.652 333.804 294.466 333.651 294.226C333.497 293.984 333.42 293.701 333.42 293.376V290.561H334.475V293.284C334.475 293.435 334.508 293.569 334.573 293.687C334.64 293.805 334.733 293.897 334.852 293.964C334.972 294.03 335.11 294.064 335.268 294.064C335.425 294.064 335.563 294.03 335.681 293.964C335.8 293.897 335.894 293.805 335.96 293.687C336.027 293.569 336.06 293.435 336.06 293.284V290.561ZM339.965 290.561L340.941 293.757H340.977L341.953 290.561H343.133L341.661 294.925H340.257L338.784 290.561H339.965ZM345.858 290.561V294.925H344.803V290.561H345.858ZM348.664 294.925H347.53L349.002 290.561H350.406L351.879 294.925H350.745L349.72 291.66H349.686L348.664 294.925ZM348.512 293.207H350.882V294.008H348.512V293.207ZM357.262 290.561V294.925H356.368L354.631 292.406H354.603V294.925H353.549V290.561H354.456L356.174 293.075H356.21V290.561H357.262ZM361.484 291.869C361.47 291.713 361.407 291.591 361.295 291.505C361.184 291.417 361.025 291.373 360.819 291.373C360.683 291.373 360.569 291.39 360.479 291.426C360.388 291.461 360.319 291.51 360.274 291.573C360.229 291.634 360.205 291.704 360.204 291.784C360.201 291.849 360.214 291.907 360.242 291.957C360.272 292.006 360.314 292.05 360.37 292.089C360.427 292.126 360.495 292.158 360.574 292.187C360.654 292.215 360.743 292.24 360.843 292.261L361.218 292.346C361.434 292.393 361.624 292.456 361.789 292.534C361.955 292.612 362.094 292.705 362.207 292.813C362.32 292.921 362.406 293.045 362.464 293.186C362.523 293.327 362.552 293.484 362.554 293.659C362.552 293.935 362.483 294.171 362.345 294.368C362.207 294.566 362.009 294.717 361.751 294.822C361.493 294.927 361.183 294.98 360.819 294.98C360.454 294.98 360.136 294.925 359.865 294.816C359.594 294.707 359.383 294.54 359.232 294.317C359.082 294.094 359.004 293.812 359 293.471H360.01C360.018 293.612 360.056 293.729 360.123 293.823C360.189 293.917 360.281 293.988 360.398 294.036C360.515 294.084 360.652 294.109 360.807 294.109C360.949 294.109 361.069 294.089 361.169 294.051C361.27 294.013 361.347 293.959 361.401 293.891C361.455 293.823 361.483 293.745 361.484 293.657C361.483 293.574 361.457 293.504 361.408 293.446C361.358 293.386 361.281 293.335 361.177 293.292C361.075 293.248 360.944 293.208 360.785 293.171L360.329 293.064C359.952 292.978 359.654 292.838 359.437 292.645C359.219 292.45 359.111 292.187 359.113 291.856C359.111 291.586 359.184 291.35 359.33 291.147C359.476 290.944 359.679 290.785 359.937 290.672C360.196 290.558 360.491 290.501 360.822 290.501C361.16 290.501 361.453 290.559 361.702 290.674C361.952 290.787 362.145 290.947 362.283 291.153C362.421 291.359 362.491 291.598 362.494 291.869H361.484Z" fill="white"/>
<defs>
<filter id="filter0_i_1024_2288" x="291.277" y="247.238" width="30.8633" height="24.9888" filterUnits="userSpaceOnUse" color-interpolation-filters="sRGB">
<feFlood flood-opacity="0" result="BackgroundImageFix"/>
<feBlend mode="normal" in="SourceGraphic" in2="BackgroundImageFix" result="shape"/>
<feColorMatrix in="SourceAlpha" type="matrix" values="0 0 0 0 0 0 0 0 0 0 0 0 0 0 0 0 0 0 127 0" result="hardAlpha"/>
<feOffset dx="-4"/>
<feGaussianBlur stdDeviation="2"/>
<feComposite in2="hardAlpha" operator="arithmetic" k2="-1" k3="1"/>
<feColorMatrix type="matrix" values="0 0 0 0 0 0 0 0 0 0 0 0 0 0 0 0 0 0 0.25 0"/>
<feBlend mode="normal" in2="shape" result="effect1_innerShadow_1024_2288"/>
</filter>
<filter id="filter1_i_1024_2288" x="201.543" y="239.429" width="40.2422" height="28.7371" filterUnits="userSpaceOnUse" color-interpolation-filters="sRGB">
<feFlood flood-opacity="0" result="BackgroundImageFix"/>
<feBlend mode="normal" in="SourceGraphic" in2="BackgroundImageFix" result="shape"/>
<feColorMatrix in="SourceAlpha" type="matrix" values="0 0 0 0 0 0 0 0 0 0 0 0 0 0 0 0 0 0 127 0" result="hardAlpha"/>
<feOffset dx="-4"/>
<feGaussianBlur stdDeviation="2"/>
<feComposite in2="hardAlpha" operator="arithmetic" k2="-1" k3="1"/>
<feColorMatrix type="matrix" values="0 0 0 0 0 0 0 0 0 0 0 0 0 0 0 0 0 0 0.25 0"/>
<feBlend mode="normal" in2="shape" result="effect1_innerShadow_1024_2288"/>
</filter>
<filter id="filter2_i_1024_2288" x="243.176" y="241.729" width="46.1719" height="29.8726" filterUnits="userSpaceOnUse" color-interpolation-filters="sRGB">
<feFlood flood-opacity="0" result="BackgroundImageFix"/>
<feBlend mode="normal" in="SourceGraphic" in2="BackgroundImageFix" result="shape"/>
<feColorMatrix in="SourceAlpha" type="matrix" values="0 0 0 0 0 0 0 0 0 0 0 0 0 0 0 0 0 0 127 0" result="hardAlpha"/>
<feOffset dx="-4"/>
<feGaussianBlur stdDeviation="2"/>
<feComposite in2="hardAlpha" operator="arithmetic" k2="-1" k3="1"/>
<feColorMatrix type="matrix" values="0 0 0 0 0 0 0 0 0 0 0 0 0 0 0 0 0 0 0.25 0"/>
<feBlend mode="normal" in2="shape" result="effect1_innerShadow_1024_2288"/>
</filter>
<filter id="filter3_i_1024_2288" x="118.66" y="239.732" width="85.2031" height="21.894" filterUnits="userSpaceOnUse" color-interpolation-filters="sRGB">
<feFlood flood-opacity="0" result="BackgroundImageFix"/>
<feBlend mode="normal" in="SourceGraphic" in2="BackgroundImageFix" result="shape"/>
<feColorMatrix in="SourceAlpha" type="matrix" values="0 0 0 0 0 0 0 0 0 0 0 0 0 0 0 0 0 0 127 0" result="hardAlpha"/>
<feOffset dx="-4"/>
<feGaussianBlur stdDeviation="2"/>
<feComposite in2="hardAlpha" operator="arithmetic" k2="-1" k3="1"/>
<feColorMatrix type="matrix" values="0 0 0 0 0 0 0 0 0 0 0 0 0 0 0 0 0 0 0.25 0"/>
<feBlend mode="normal" in2="shape" result="effect1_innerShadow_1024_2288"/>
</filter>
<filter id="filter4_d_1024_2288" x="222.535" y="273.351" width="18.6211" height="11.1235" filterUnits="userSpaceOnUse" color-interpolation-filters="sRGB">
<feFlood flood-opacity="0" result="BackgroundImageFix"/>
<feColorMatrix in="SourceAlpha" type="matrix" values="0 0 0 0 0 0 0 0 0 0 0 0 0 0 0 0 0 0 127 0" result="hardAlpha"/>
<feOffset dx="1" dy="2"/>
<feGaussianBlur stdDeviation="2"/>
<feComposite in2="hardAlpha" operator="out"/>
<feColorMatrix type="matrix" values="0 0 0 0 0 0 0 0 0 0 0 0 0 0 0 0 0 0 0.52 0"/>
<feBlend mode="normal" in2="BackgroundImageFix" result="effect1_dropShadow_1024_2288"/>
<feBlend mode="normal" in="SourceGraphic" in2="effect1_dropShadow_1024_2288" result="shape"/>
</filter>
<filter id="filter5_d_1024_2288" x="192.141" y="252.359" width="24.2734" height="22.3687" filterUnits="userSpaceOnUse" color-interpolation-filters="sRGB">
<feFlood flood-opacity="0" result="BackgroundImageFix"/>
<feColorMatrix in="SourceAlpha" type="matrix" values="0 0 0 0 0 0 0 0 0 0 0 0 0 0 0 0 0 0 127 0" result="hardAlpha"/>
<feOffset dy="1"/>
<feGaussianBlur stdDeviation="2"/>
<feComposite in2="hardAlpha" operator="out"/>
<feColorMatrix type="matrix" values="0 0 0 0 0 0 0 0 0 0 0 0 0 0 0 0 0 0 1 0"/>
<feBlend mode="normal" in2="BackgroundImageFix" result="effect1_dropShadow_1024_2288"/>
<feBlend mode="normal" in="SourceGraphic" in2="effect1_dropShadow_1024_2288" result="shape"/>
</filter>
<filter id="filter6_d_1024_2288" x="377.16" y="248.988" width="54.0117" height="29.4297" filterUnits="userSpaceOnUse" color-interpolation-filters="sRGB">
<feFlood flood-opacity="0" result="BackgroundImageFix"/>
<feColorMatrix in="SourceAlpha" type="matrix" values="0 0 0 0 0 0 0 0 0 0 0 0 0 0 0 0 0 0 127 0" result="hardAlpha"/>
<feOffset dx="1" dy="1"/>
<feGaussianBlur stdDeviation="1"/>
<feComposite in2="hardAlpha" operator="out"/>
<feColorMatrix type="matrix" values="0 0 0 0 0.434167 0 0 0 0 0.434167 0 0 0 0 0.434167 0 0 0 1 0"/>
<feBlend mode="normal" in2="BackgroundImageFix" result="effect1_dropShadow_1024_2288"/>
<feBlend mode="normal" in="SourceGraphic" in2="effect1_dropShadow_1024_2288" result="shape"/>
</filter>
<linearGradient id="paint0_linear_1024_2288" x1="140.974" y1="225.998" x2="209.693" y2="225.998" gradientUnits="userSpaceOnUse">
<stop offset="0.817891" stop-color="#EE3B6A"/>
<stop offset="1" stop-color="#D33B6F"/>
</linearGradient>
</defs>
</svg>
